<svg width="227" height="39" viewBox="0 0 227 39" fill="none" xmlns="http://www.w3.org/2000/svg">
<path d="M1.56576 15.2767H15.6456V19.8707L10.9743 20.3666C3.89741 21.1526 0 24.5646 0 29.9745C0 35.3844 4.21136 38.3463 8.37073 38.3463C12.5301 38.3463 14.9177 36.4223 15.8716 35.6004C15.8836 35.5904 15.8956 35.5804 15.9076 35.5704L16.2495 37.6203H19.797V11.6328H2.35764L1.56576 15.2767ZM15.6456 31.7324L15.5816 31.7964C14.6738 32.7084 12.5501 34.8464 9.46257 34.8464C6.37503 34.8464 4.22736 32.7044 4.22736 29.7545C4.22736 26.3405 6.77297 24.2266 11.5922 23.6426L15.6456 23.1526V31.7304V31.7324Z" fill="#EAE5DA"/>
<path d="M40.6792 10.8301C36.8237 10.8301 34.3061 13.782 33.2303 15.044C33.2163 15.062 33.2003 15.078 33.1863 15.094V11.6301H28.9609V37.6156H33.1863V18.5339C36.2558 15.48 38.6375 14.836 40.0953 14.836C41.0231 14.836 41.735 14.954 42.2529 15.042C42.5389 15.09 42.7648 15.128 42.9328 15.128H43.0808V11.1621L42.9788 11.1281C42.5949 11.0001 41.937 10.8301 40.6772 10.8301H40.6792Z" fill="#EAE5DA"/>
<path d="M65.4598 33.055C64.47 33.553 62.6282 34.481 60.7605 34.481C57.753 34.481 56.4692 32.937 56.4692 29.3171V14.9114H64.7919L65.9917 11.6314H56.4692V1.51562H52.2438V11.6314H47.9225L46.7227 14.9114H52.2438V29.1731C52.2438 37.217 57.0331 38.4189 59.8867 38.4189C62.9782 38.4189 65.1139 37.199 65.9178 36.741C65.9757 36.707 66.0277 36.679 66.0717 36.653L66.1477 36.611V32.727L65.9377 32.823C65.8118 32.881 65.6498 32.961 65.4598 33.057V33.055Z" fill="#EAE5DA"/>
<path d="M72.7695 3.48393L76.329 6.96787L79.8145 3.48193L76.255 0L72.7695 3.48393Z" fill="#EAE5DA"/>
<path d="M78.4441 11.6328H74.2188V37.6183H78.4441V11.6328Z" fill="#EAE5DA"/>
<path d="M97.3493 22.6939C97.1993 22.6219 97.0573 22.5539 96.9213 22.4879C96.7793 22.4219 96.6314 22.3539 96.4814 22.2839C94.3157 21.2859 91.6221 20.042 91.6221 17.892C91.6221 15.88 93.7158 14.4741 96.7134 14.4741C98.927 14.4741 101.741 15.596 103.548 16.708L103.774 16.848V12.7861L103.702 12.7421C102.744 12.1661 100.121 10.8281 96.4954 10.8281C91.0962 10.8281 87.4688 13.8121 87.4688 18.254C87.4688 22.3059 91.5141 24.4759 94.1917 25.9098C94.3597 25.9998 94.5217 26.0878 94.6777 26.1718C95.0316 26.3618 95.4255 26.5538 95.8435 26.7598C97.9472 27.7938 100.567 29.0798 100.567 31.0637C100.567 33.7477 97.7452 34.6997 95.3296 34.6997C92.614 34.6997 89.7924 33.2677 88.4366 32.5797C88.2126 32.4657 88.0307 32.3737 87.8967 32.3117L87.6867 32.2137V36.4676L87.9207 36.5856C89.0065 37.1336 91.5481 38.4176 95.3296 38.4176C101.033 38.4176 104.718 35.4457 104.718 30.8457C104.718 26.2458 99.9229 23.9239 97.3473 22.6939H97.3493Z" fill="#EAE5DA"/>
<path d="M112.175 15.2767H126.255V19.8707L121.584 20.3666C114.507 21.1526 110.609 24.5646 110.609 29.9745C110.609 35.3844 114.821 38.3463 118.98 38.3463C123.139 38.3463 125.527 36.4223 126.481 35.6004C126.493 35.5904 126.505 35.5804 126.517 35.5704L126.859 37.6203H130.408V11.6328H112.969L112.177 15.2767H112.175ZM126.255 31.7324L126.191 31.7964C125.283 32.7084 123.159 34.8464 120.072 34.8464C116.984 34.8464 114.837 32.7044 114.837 29.7545C114.837 26.3405 117.382 24.2266 122.202 23.6426L126.255 23.1526V31.7304V31.7324Z" fill="#EAE5DA"/>
<path d="M152.524 10.8301C149.147 10.8301 146.211 12.2381 143.796 15.018V11.6321H139.57V37.6176H143.796V19.6919C143.822 19.6579 143.852 19.6199 143.888 19.5759C146.365 16.386 149.077 14.768 151.942 14.768C154.992 14.768 156.888 16.83 156.888 20.1499V37.6176H161.113V19.8579C161.113 14.458 157.662 10.8321 152.524 10.8321V10.8301Z" fill="#EAE5DA"/>
<path d="M169.211 30.0436L172.822 33.6555L176.468 30.0436L172.822 26.4316L169.211 30.0436Z" fill="#EAE5DA"/>
<path d="M169.211 19.2057L172.822 22.8177L176.468 19.2057L172.822 15.5918L169.211 19.2057Z" fill="#EAE5DA"/>
<path d="M196.289 10.8301C192.433 10.8301 189.916 13.782 188.84 15.044C188.826 15.062 188.81 15.078 188.796 15.094V11.6301H184.57V37.6156H188.796V18.5339C191.865 15.48 194.247 14.836 195.705 14.836C196.632 14.836 197.344 14.954 197.862 15.042C198.148 15.09 198.374 15.128 198.542 15.128H198.69V11.1621L198.588 11.1281C198.204 11.0001 197.546 10.8301 196.285 10.8301H196.289Z" fill="#EAE5DA"/>
<path d="M226.999 23.1318C226.999 16.004 222.377 10.8301 216.008 10.8301C212.447 10.8301 209.089 12.1601 206.556 14.574C203.874 17.128 202.398 20.7099 202.398 24.6598C202.398 28.6097 203.832 32.2097 206.548 34.7656C209.049 37.1196 212.383 38.4176 215.936 38.4176C219.688 38.4176 223.089 37.4876 226.043 35.6556C226.105 35.6176 226.157 35.5836 226.201 35.5596L226.273 35.5156V31.5537L226.059 31.6617C225.913 31.7337 225.727 31.8437 225.489 31.9797C224.003 32.8397 220.91 34.6296 216.374 34.6296C211.839 34.6296 207.072 31.7057 206.636 25.1738H227.001V23.1338L226.999 23.1318ZM206.886 21.8199C207.488 19.5119 209.491 14.62 215.644 14.62C219.742 14.62 222.843 17.7039 222.917 21.8199H206.886Z" fill="#EAE5DA"/>
</svg>
